<svg version="1.2" xmlns="http://www.w3.org/2000/svg" viewBox="0 0 1001 1001" width="1001" height="1001">
	<title>calendar_icon</title>
	<style>
		.s0 { fill: none;stroke: #000000;stroke-linecap: round;stroke-linejoin: round;stroke-width: 41 } 
		.s1 { fill: none;stroke: #1151bd;stroke-linecap: round;stroke-linejoin: round;stroke-width: 22 } 
	</style>
	<path class="s0" d="m353.9 133.2v147.1m294.2-147.1v147.1"/>
	<path fill-rule="evenodd" class="s0" d="m243.5 206.7h515c40.6 0 73.6 33 73.6 73.6v515c0 40.6-33 73.5-73.6 73.5h-515c-40.6 0-73.6-32.9-73.6-73.5v-515c0-40.6 33-73.6 73.6-73.6z"/>
	<path class="s0" d="m169.9 427.4h662.2"/>
	<path class="s1" d="m482 505.8l-1.4 1.3h-6.7l-1.3 1.4h-5.4l-1.4 1.3h-4l-1.4 1.4h-2.7l-1.3 1.3h-2.7l-1.4 1.4h-2.7l-1.3 1.3h-1.4l-1.3 1.4h-2.7l-1.4 1.3h-1.3l-1.3 1.4h-1.4l-1.4 1.3h-1.3l-1.4 1.4h-1.3l-2.7 2.7h-1.4l-1.3 1.3h-1.3l-2.7 2.7h-1.4l-2.7 2.7h-1.3l-5.4 5.4h-1.4l-17.5 17.5v1.4l-5.4 5.4v1.3l-2.7 2.8v1.3l-2.7 2.7v1.3l-1.4 1.4v1.3l-2.6 2.7v1.4l-1.4 1.3v1.4l-1.4 1.3v1.4l-1.3 1.3v1.4l-1.3 1.3v2.7l-1.4 1.4v1.3l-1.3 1.4v2.7l-1.4 1.3v4.1l-1.4 1.3v2.7l-1.3 1.3v4.1l-1.3 1.3v1.4l-4.1 4.1h-1.3l-1.4-1.4h-5.4l-1.3-1.4h-9.5l-1.3-1.3h-8.1l-1.4 1.3h-9.4l-1.3 1.4h-5.5l-1.3 1.4h-2.7l-1.4 1.3h-4l-1.4 1.3h-1.3l-1.4 1.4h-1.3l-1.4 1.3h-1.3l-1.4 1.4h-1.3l-1.3 1.3h-1.4l-1.4 1.4h-1.3l-2.7 2.7h-1.3l-4.1 4h-1.3l-12.2 12.2v1.3l-4 4v1.4l-2.7 2.7v1.4l-1.4 1.3v1.3l-1.3 1.4v1.4l-1.4 1.3v1.3l-1.3 1.4v1.3l-1.4 1.4v2.7l-1.3 1.3v2.7l-1.4 1.4v2.7l-1.3 1.3v4.1l-1.4 1.3v12.2l-1.3 1.3v5.4l1.3 1.4v10.8l1.4 1.3v5.4l1.3 1.3v2.7l1.4 1.4v2.7l1.3 1.3v2.7l1.4 1.4v1.3l1.3 1.4v1.3l1.4 1.4v1.3l1.3 1.4v1.3l2.7 2.7v1.4l2.7 2.7v1.3l5.4 5.4v1.4l8.1 8.1h1.4l5.4 5.4h1.3l1.3 1.3h1.4l2.7 2.7h1.4l1.3 1.3h1.3l1.4 1.4h1.3l1.4 1.4h1.3l1.4 1.3h2.7l1.3 1.3h2.7l1.4 1.4h4l1.4 1.3h6.7l1.4 1.4h22.9l28.3-28.3h1.4l48.5-48.6h1.4l12.1 12.1v1.4l9.4 9.4v2.7l-51.2 51.3h28.3l103.9-103.9h2.7l10.8 10.8v1.4l78.2 78.2v1.3h1.3l12.2 12.2h29.7l1.3-1.4h8.1l1.3-1.3h5.4l1.4-1.4h4l1.4-1.3h2.7l1.3-1.3h2.7l1.4-1.4h1.3l1.4-1.4h1.3l1.4-1.3h1.3l1.4-1.4h1.3l1.4-1.3h1.3l2.7-2.7h1.3l2.8-2.7h1.3l5.4-5.4h1.4l4-4v-1.4l6.7-6.7v-1.4l2.7-2.7v-1.3l2.7-2.7v-1.4l1.4-1.3v-1.4l1.3-1.3v-1.4l1.4-1.3v-1.4l1.3-1.3v-2.7l1.4-1.3v-1.4l1.3-1.4v-2.7l1.4-1.3v-2.7l1.3-1.4v-2.6l1.4-1.4v-5.4l1.3-1.3v-10.8l1.4-1.4v-4l-1.4-1.4v-12.1l-1.3-1.3v-5.5l-1.4-1.3v-4.1l-1.3-1.3v-2.7l-1.4-1.3v-2.8l-1.3-1.3v-1.3l-1.4-1.4v-1.3l-1.3-1.4v-1.4l-1.4-1.3v-1.3l-1.3-1.4v-1.3l-2.7-2.7v-1.4l-1.4-1.3v-1.4l-4-4v-1.4l-18.9-18.9h-1.4l-2.6-2.7h-1.4l-2.7-2.6h-1.3l-1.4-1.4h-1.3l-1.4-1.4h-1.3l-1.4-1.3h-1.3l-1.4-1.3h-1.3l-1.4-1.4h-2.7l-1.3-1.3h-2.7l-1.4-1.4h-2.7l-1.3-1.4h-6.8l-1.3-1.3h-25.6l-1.4 1.3h-6.7l-1.4 1.4h-6.7l-2.7-2.7v-2.7l-1.3-1.3v-1.4l-1.4-1.3v-2.7l-1.4-1.4v-1.3l-1.3-1.4v-1.3l-1.4-1.4v-1.3l-1.3-1.4v-1.3l-1.3-1.4v-1.3l-1.4-1.4v-1.3l-2.7-2.7v-1.4l-2.7-2.6v-1.4l-4.1-4.1v-1.3l-5.3-5.4v-1.3l-12.2-12.2h-1.3l-6.8-6.7h-1.3l-2.7-2.7h-1.4l-2.7-2.7h-1.3l-2.7-2.7h-1.4l-1.3-1.4h-1.3l-1.4-1.3h-1.4l-2.7-2.7h-1.3l-1.3-1.4h-2.8l-1.3-1.3h-1.3l-1.4-1.4h-1.3l-1.4-1.3h-2.7l-1.3-1.3h-2.7l-1.4-1.4h-2.7l-1.3-1.4h-4.1l-1.3-1.3h-5.4l-1.4-1.4h-6.7l-1.4-1.3z"/>
</svg>