<svg width="24" height="24" xmlns="http://www.w3.org/2000/svg" baseProfile="full">
    <path stroke-width="2" stroke-linejoin="round" stroke-linecap="round" stroke="currentColor" fill="none"
        d="M8 2v4m8-4v4" />
    <rect y="4" x="3" width="18" stroke-width="2" stroke="currentColor" rx="2" height="18" fill="none" />
    <path stroke-width="2" stroke="currentColor" fill="none" d="M3 10h18" />
    <path stroke="null" fill="currentColor"
        d="m11.538 12.13-.037.037h-.183l-.037.036h-.146l-.037.037h-.11l-.037.037h-.073l-.037.036h-.073l-.037.037h-.073l-.037.037h-.036l-.037.036h-.073l-.037.037h-.037l-.036.037h-.037l-.037.037h-.036l-.037.036h-.037l-.073.074h-.037l-.036.036h-.037l-.073.074h-.037l-.073.073h-.037l-.147.147h-.036l-.477.476v.037l-.147.147v.036l-.073.074v.036l-.073.074v.036l-.037.037v.037l-.073.073v.037l-.037.036v.037l-.037.037v.036l-.036.037v.037l-.037.036v.074l-.037.036v.037l-.036.037v.073l-.037.037v.11l-.037.036v.074l-.036.036v.11l-.037.037v.037l-.11.11h-.037l-.036-.037h-.147l-.037-.037h-.256l-.037-.036h-.22l-.037.036h-.256l-.037.037h-.147l-.036.037H6.88l-.036.036h-.11l-.037.037H6.66l-.036.037h-.037l-.037.036h-.036l-.037.037H6.44l-.036.037h-.037l-.037.036h-.036l-.074.074h-.036l-.11.11h-.037l-.33.33v.036l-.11.11v.037l-.073.073v.037l-.037.037v.036l-.037.037v.037l-.036.036v.037l-.037.037v.036l-.037.037v.073l-.036.037v.073l-.037.037v.073l-.037.037v.11l-.036.037v.33l-.037.036v.147l.037.037v.293l.036.037v.146l.037.037v.073l.037.037v.073l.036.037v.073l.037.037v.037l.037.036v.037l.036.037v.036l.037.037v.037l.073.073v.037l.074.073v.037l.146.146v.037l.22.22h.037l.147.147h.036l.037.036h.037l.073.074h.037l.036.036h.037l.037.037h.036l.037.037h.037l.036.036h.074l.036.037h.074l.036.037h.11l.037.036h.183l.037.037h.623l.77-.77h.037l1.32-1.32h.037l.33.33v.037l.256.256v.074l-1.393 1.393h.77l2.823-2.823h.074l.293.293v.037l2.127 2.126v.037h.036l.33.33h.807l.037-.037h.22l.036-.036h.147l.037-.037h.11l.036-.037h.074l.036-.036h.074l.036-.037h.037l.037-.037h.036l.037-.036h.037l.036-.037h.037l.037-.037h.036l.074-.073h.036l.074-.073h.036l.147-.147h.037l.11-.11v-.037l.183-.183v-.037l.073-.073v-.037l.074-.073v-.037l.036-.036v-.037l.037-.037v-.036l.037-.037V18.4l.036-.036v-.074l.037-.036v-.037l.037-.037v-.073l.036-.037v-.073l.037-.037v-.073l.037-.037v-.146l.036-.037v-.293l.037-.037v-.11l-.037-.037v-.33l-.036-.036v-.147l-.037-.037v-.11l-.037-.036v-.074l-.036-.036v-.074l-.037-.036v-.037l-.037-.037v-.036l-.036-.037v-.037l-.037-.036v-.037l-.037-.037v-.036l-.073-.074v-.036l-.037-.037v-.037l-.11-.11v-.036l-.513-.514h-.037l-.073-.073h-.037l-.073-.073h-.037l-.036-.037h-.037l-.037-.037h-.036l-.037-.036h-.037l-.036-.037h-.037l-.037-.037h-.073l-.037-.036h-.073L17 14.697h-.073l-.037-.037h-.183l-.037-.036h-.696l-.037.036h-.183l-.037.037h-.183l-.074-.073v-.074l-.036-.036v-.037l-.037-.037v-.073l-.037-.037v-.036l-.036-.037v-.037l-.037-.036v-.037l-.037-.037v-.036l-.036-.037V14l-.037-.036v-.037l-.073-.073v-.037l-.074-.073v-.037l-.11-.11v-.037l-.146-.146v-.037l-.33-.33h-.037l-.183-.183h-.037l-.073-.074h-.037l-.073-.073h-.037l-.073-.073h-.037l-.037-.037h-.036l-.037-.037H13.7l-.073-.073h-.037l-.036-.037h-.074l-.036-.036h-.037l-.037-.037h-.036l-.037-.037h-.073l-.037-.036h-.073l-.037-.037h-.073l-.037-.037h-.11l-.037-.037h-.146l-.037-.036h-.183l-.037-.037z" />
</svg>